<?xml version="1.0" encoding="UTF-8"?>
<svg width="128px" height="128px" viewBox="0 0 128 128" version="1.1" xmlns="http://www.w3.org/2000/svg">
    <g stroke="none" stroke-width="1" fill="none" fill-rule="evenodd">
        <g>
            <rect fill="#000000" x="0" y="0" width="128" height="128" rx="16"/>
            <g>
                <rect x="0" y="0" width="128" height="128"/>
                <path d="M96.079668,46.0207469 L96.079668,61.9543568 L31.920332,61.9543568 L31.920332,46.0207469 L23.9004149,46.0207469 L23.9004149,61.9543568 C23.9004149,66.3543017 27.4910541,69.9211618 31.920332,69.9211618 L96.079668,69.9211618 C100.508946,69.9211618 104.099585,66.3543017 104.099585,61.9543568 L104.099585,46.0207469 L96.079668,46.0207469 Z" id="Path" fill="#FFFFFF" fill-rule="nonzero"/>
                <path d="M43.9723375,25.9488243 L49.6361604,31.6126473 L59.9944675,21.2543402 L59.9944675,53.9875519 L68.0055325,53.9875519 L68.0055325,21.2543402 L78.3638396,31.6126473 L84.0276625,25.9488243 L64,5.92116183 L43.9723375,25.9488243 Z M112.06639,86.6791148 L112.06639,78.6680498 L88.033195,78.6680498 L88.033195,118.723375 L96.04426,118.723375 L96.04426,102.701245 L108.060858,102.701245 L108.060858,94.6901798 L96.04426,94.6901798 L96.04426,86.6791148 L112.06639,86.6791148 Z M68.0055325,118.723375 L51.9834025,118.723375 L51.9834025,78.6680498 L68.0055325,78.6680498 C74.6393704,78.6746737 80.0155061,84.0508094 80.02213,90.6846473 L80.02213,106.706777 C80.0155061,113.340615 74.6393704,118.716751 68.0055325,118.723375 M59.9944675,110.71231 L68.0055325,110.71231 C70.217727,110.71231 72.011065,108.918972 72.011065,106.706777 L72.011065,90.6846473 C72.011065,88.4724528 70.217727,86.6791148 68.0055325,86.6791148 L59.9944675,86.6791148 L59.9944675,110.71231 Z M35.9612725,78.6680498 L15.93361,78.6680498 L15.93361,118.723375 L23.944675,118.723375 L23.944675,106.706777 L35.9612725,106.706777 C40.3829175,106.70016 43.9657199,103.117357 43.9723375,98.6957123 L43.9723375,86.6791148 C43.9723375,82.2547258 40.3856615,78.6680498 35.9612725,78.6680498 M23.944675,98.6957123 L23.944675,86.6791148 L35.9612725,86.6791148 L35.965278,98.6957123 L23.944675,98.6957123 Z" id="Shape" fill="#FFFFFF" fill-rule="nonzero" />
            </g>
        </g>
    </g>
</svg>
